<svg width="13" height="11" viewBox="0 0 13 11" fill="none" xmlns="http://www.w3.org/2000/svg">
<path d="M12.3861 1.96579H9.06915V1.0355C9.06915 0.464544 8.61462 0 8.05588 0H4.94406C4.38538 0 3.93082 0.464544 3.93082 1.0355V1.96579H0.613854C0.274807 1.96579 0 2.24664 0 2.5931V4.62843H2.37957V4.11583C2.37957 3.789 2.63881 3.5241 2.95855 3.5241H3.07437C3.39411 3.5241 3.65335 3.789 3.65335 4.11583V4.62843H9.34665V4.11583C9.34665 3.789 9.60589 3.5241 9.92563 3.5241H10.0414C10.3612 3.5241 10.6204 3.789 10.6204 4.11583V4.62843H13V2.5931C13 2.24664 12.7252 1.96579 12.3861 1.96579ZM8.20065 1.96579H4.79935V1.0355C4.79935 0.953942 4.86428 0.887579 4.94409 0.887579H8.05594C8.13575 0.887579 8.20062 0.953942 8.20062 1.0355L8.20065 1.96579Z" fill="#91C662"/>
<path d="M10.6204 5.98275C10.6204 6.30955 10.3612 6.57448 10.0414 6.57448H9.92563C9.60589 6.57448 9.34665 6.30955 9.34665 5.98275V5.57829H3.65335V5.98275C3.65335 6.30955 3.39411 6.57448 3.07437 6.57448H2.95855C2.63881 6.57448 2.37957 6.30955 2.37957 5.98275V5.57829H0.368693V10.4082C0.368693 10.7351 0.627932 11 0.947668 11H12.0523C12.372 11 12.6312 10.7351 12.6312 10.4082V5.57826H10.6204L10.6204 5.98275Z" fill="#91C662"/>
</svg>
