<svg width="9" height="11" viewBox="0 0 9 11" fill="none" xmlns="http://www.w3.org/2000/svg">
<path d="M7.68198 1.33435C5.92462 -0.444782 3.07538 -0.444782 1.31802 1.33435C-0.43934 3.11405 -0.43934 5.99899 1.31802 7.77812L4.49972 11L7.68198 7.77812C9.43934 5.99899 9.43934 3.11405 7.68198 1.33435ZM4.49972 6.07888C4.12395 6.07888 3.77124 5.92835 3.50516 5.65509C2.95669 5.09061 2.95669 4.17238 3.50516 3.6079C3.77067 3.33464 4.12395 3.18411 4.49972 3.18411C4.87549 3.18411 5.22876 3.33464 5.49428 3.6079C6.04275 4.17238 6.04275 5.09119 5.49428 5.65509C5.22876 5.92835 4.87549 6.07888 4.49972 6.07888Z" fill="#91C662"/>
</svg>
